<svg width="35" height="35" viewBox="0 0 35 35" fill="none" xmlns="http://www.w3.org/2000/svg">
<path d="M17.2575 3.30716e-08C20.671 -0.000211236 24.0079 1.01181 26.8462 2.90808C29.6845 4.80436 31.8967 7.49971 33.2032 10.6533C34.5096 13.8069 34.8515 17.277 34.1857 20.625C33.5199 23.9729 31.8763 27.0482 29.4626 29.4619C27.049 31.8757 23.9738 33.5195 20.626 34.1856C17.2781 34.8516 13.8079 34.5098 10.6542 33.2036C7.50062 31.8974 4.80513 29.6853 2.90868 26.8471C1.01223 24.0089 0 20.6721 0 17.2586C0 12.6815 1.81817 8.2919 5.05456 5.05531C8.29095 1.81872 12.6804 0.000283321 17.2575 3.30716e-08Z" fill="#DFF34F"/>
<path fill-rule="evenodd" clip-rule="evenodd" d="M13.3706 3.24414H16.9907V6.00693C17.1902 6.00143 17.3915 5.99868 17.5949 5.99868C17.7984 5.99868 17.9999 6.00142 18.1995 6.00692V3.24414H21.8196V6.45696C22.6252 6.64643 23.3887 6.89464 24.1102 7.20161C26.0157 8.00356 27.5523 9.13803 28.7202 10.605C29.888 12.0524 30.5846 13.7444 30.81 15.6808H24.4176C24.2127 14.7419 23.8132 13.9498 23.219 13.3043C22.6248 12.6392 21.8462 12.1307 20.8833 11.7786C19.9408 11.4265 18.8447 11.2505 17.5949 11.2505C16.1607 11.2505 14.9211 11.5048 13.8762 12.0133C12.8313 12.5023 12.0322 13.2163 11.479 14.1551C10.9258 15.0744 10.6492 16.1796 10.6492 17.4705C10.6492 18.7615 10.9258 19.8764 11.479 20.8153C12.0322 21.7346 12.8313 22.4485 13.8762 22.9571C14.9211 23.4461 16.1607 23.6906 17.5949 23.6906C18.8447 23.6906 19.9408 23.5243 20.8833 23.1918C21.8462 22.8593 22.6248 22.3605 23.219 21.6955C23.8132 21.0304 24.2127 20.2187 24.4176 19.2603H30.81C30.5846 21.1967 29.888 22.8984 28.7202 24.3654C27.5523 25.8128 26.0157 26.9375 24.1102 27.7394C23.3898 28.046 22.6275 28.2939 21.8232 28.4833V30.9985H18.2031V28.934C18.0023 28.9396 17.7996 28.9424 17.5949 28.9424C17.3928 28.9424 17.1926 28.9397 16.9943 28.9342V31.0003H13.3742V28.4846C12.3709 28.249 11.4319 27.9223 10.557 27.5047C8.54914 26.5463 6.98176 25.2064 5.85489 23.4852C4.7485 21.7639 4.19531 19.759 4.19531 17.4705C4.19531 15.182 4.7485 13.1771 5.85489 11.4559C6.98176 9.73461 8.54914 8.39476 10.557 7.43633C11.4309 7.01922 12.3687 6.69287 13.3706 6.45729V3.24414Z" fill="#381C7A"/>
</svg>
