<svg width="127" height="35" viewBox="0 0 127 35" fill="none" xmlns="http://www.w3.org/2000/svg">
<path d="M17.2575 3.30716e-08C20.671 -0.000211236 24.0079 1.01181 26.8462 2.90808C29.6845 4.80436 31.8967 7.49971 33.2032 10.6533C34.5096 13.8069 34.8515 17.277 34.1857 20.625C33.5199 23.9729 31.8763 27.0482 29.4626 29.4619C27.049 31.8757 23.9738 33.5195 20.626 34.1856C17.2781 34.8516 13.8079 34.5098 10.6542 33.2036C7.50062 31.8974 4.80513 29.6853 2.90868 26.8471C1.01223 24.0089 0 20.6721 0 17.2586C0 12.6815 1.81817 8.2919 5.05456 5.05531C8.29095 1.81872 12.6804 0.000283321 17.2575 3.30716e-08Z" fill="#DFF34F"/>
<path d="M88.8334 27.3631C88.9114 27.2367 89.0236 27.1341 89.1694 27.0561C89.3158 26.978 89.4829 26.9393 89.6712 26.9393C89.8957 26.9393 90.0989 26.9961 90.2808 27.1096C90.4627 27.2238 90.6052 27.3863 90.709 27.5972C90.8161 27.8082 90.8703 28.0533 90.8703 28.3326C90.8703 28.6125 90.8161 28.8589 90.709 29.0737C90.6052 29.2846 90.4627 29.4484 90.2808 29.5658C90.0989 29.6793 89.8957 29.7361 89.6712 29.7361C89.4797 29.7361 89.3126 29.6987 89.1694 29.6239C89.0269 29.5458 88.9146 29.4439 88.8334 29.3169V29.6974H88V26.0918H88.8334V27.3631ZM90.0221 28.3326C90.0221 28.1249 89.9641 27.9623 89.8467 27.8456C89.7331 27.7256 89.5919 27.6656 89.4229 27.6656C89.2571 27.6656 89.1159 27.7256 88.9991 27.8456C88.8856 27.9655 88.8288 28.13 88.8288 28.3377C88.8288 28.5454 88.8856 28.7099 88.9991 28.8299C89.1159 28.9498 89.2571 29.0098 89.4229 29.0098C89.5887 29.0098 89.7299 28.9498 89.8467 28.8299C89.9641 28.7067 90.0221 28.5409 90.0221 28.3326ZM94.0844 26.978L92.379 30.9881H91.4824L92.1061 29.6045L90.9999 26.978H91.9307L92.5596 28.6789L93.1827 26.978H94.0844Z" fill="#381C7A"/>
<path d="M95.457 29.7095H96.1988V28.6284H97.3547C98.1125 28.6284 98.8169 28.0615 98.8169 27.3145C98.8169 26.525 98.1493 26 97.354 26H95.457V29.7095ZM98.0751 27.3145C98.0751 27.6641 97.7623 27.9344 97.354 27.9344H96.1988V26.6837H97.3547C97.7675 26.6837 98.0751 26.9488 98.0751 27.3145ZM102.642 29.7095V27.0598H101.985L101.911 27.4094C101.641 27.1339 101.249 26.9804 100.804 26.9804C99.9186 26.9804 99.262 27.579 99.262 28.3898C99.262 29.1896 99.9244 29.7888 100.804 29.7888C101.254 29.7888 101.641 29.6301 101.911 29.3599L101.985 29.7095H102.642ZM100.004 28.3898C100.004 27.9499 100.406 27.6319 100.963 27.6319C101.519 27.6319 101.901 27.9447 101.901 28.3898C101.901 28.8297 101.524 29.1315 100.963 29.1315C100.406 29.1315 100.004 28.8193 100.004 28.3898ZM105.244 30.7531L106.574 27.0598H105.795L105.095 28.9993H104.624L103.92 27.0598H103.135L104.1 29.7095H104.836L104.46 30.7531H105.244ZM109.51 28.9567C109.51 27.8125 107.65 28.3846 107.65 27.8177C107.65 27.6429 107.862 27.5158 108.153 27.5158C108.503 27.5158 108.693 27.6641 108.726 27.8757H109.467C109.425 27.3249 108.953 26.9804 108.159 26.9804C107.385 26.9804 106.908 27.3571 106.908 27.8228C106.908 28.8877 108.762 28.3743 108.762 28.9567C108.762 29.1264 108.535 29.2592 108.233 29.2592C107.856 29.2592 107.623 29.1212 107.581 28.8877H106.839C106.897 29.4392 107.437 29.7888 108.233 29.7888C109.006 29.7888 109.51 29.434 109.51 28.9567ZM113.15 28.5704C113.159 28.5104 113.162 28.4504 113.161 28.3898C113.161 27.5474 112.482 26.9804 111.576 26.9804C110.659 26.9804 109.981 27.579 109.981 28.3898C109.981 29.1896 110.665 29.7888 111.576 29.7888C112.302 29.7888 112.869 29.4392 113.07 28.8987H112.318C112.18 29.0896 111.926 29.2057 111.608 29.2057C111.163 29.2057 110.824 28.9516 110.744 28.5704H113.15ZM110.744 28.1988C110.824 27.828 111.147 27.579 111.576 27.579C112.011 27.579 112.323 27.8228 112.398 28.1988H110.744ZM114.4 28.3898C114.4 27.9608 114.771 27.6532 115.28 27.6532C115.677 27.6532 115.974 27.8176 116.096 28.0879H116.864C116.721 27.4094 116.096 26.9804 115.28 26.9804C114.348 26.9804 113.659 27.579 113.659 28.3898C113.659 29.1896 114.353 29.7888 115.28 29.7888C116.102 29.7888 116.732 29.3489 116.87 28.6762H116.101C115.979 28.9516 115.683 29.1109 115.28 29.1109C114.777 29.1109 114.4 28.8135 114.4 28.3898ZM119.879 28.2943C119.879 28.7665 119.551 29.0999 119.084 29.0999C118.613 29.0999 118.279 28.7716 118.279 28.2943V27.0598H117.537V28.2943C117.537 29.1741 118.094 29.7888 118.888 29.7888C119.084 29.7895 119.277 29.743 119.451 29.6521C119.624 29.5618 119.773 29.4302 119.885 29.2696L119.954 29.7095H120.621V27.0598H119.88L119.879 28.2943ZM123.435 26.9804C122.868 26.9804 122.428 27.2771 122.184 27.7493L122.105 27.0604H121.443V29.7095H122.184V28.9567C122.184 28.215 122.646 27.7648 123.435 27.7648V26.9804ZM126.99 28.5704C126.999 28.5104 127.003 28.4504 127.001 28.3898C127.001 27.5474 126.323 26.9804 125.416 26.9804C124.5 26.9804 123.822 27.579 123.822 28.3898C123.822 29.1896 124.505 29.7888 125.416 29.7888C126.143 29.7888 126.71 29.4392 126.911 28.8987H126.158C126.021 29.0896 125.766 29.2057 125.449 29.2057C125.003 29.2057 124.664 28.9516 124.584 28.5704H126.99ZM124.585 28.1995C124.664 27.828 124.988 27.579 125.416 27.579C125.851 27.579 126.164 27.8228 126.238 28.1995H124.585Z" fill="#381C7A"/>
<path fill-rule="evenodd" clip-rule="evenodd" d="M13.3706 3.24414H16.9907V6.00693C17.1902 6.00143 17.3915 5.99868 17.5949 5.99868C17.7984 5.99868 17.9999 6.00142 18.1995 6.00692V3.24414H21.8196V6.45696C22.6252 6.64643 23.3887 6.89464 24.1102 7.20161C26.0157 8.00356 27.5523 9.13803 28.7202 10.605C29.888 12.0524 30.5846 13.7444 30.81 15.6808H24.4176C24.2127 14.7419 23.8132 13.9498 23.219 13.3043C22.6248 12.6392 21.8462 12.1307 20.8833 11.7786C19.9408 11.4265 18.8447 11.2505 17.5949 11.2505C16.1607 11.2505 14.9211 11.5048 13.8762 12.0133C12.8313 12.5023 12.0322 13.2163 11.479 14.1551C10.9258 15.0744 10.6492 16.1796 10.6492 17.4705C10.6492 18.7615 10.9258 19.8764 11.479 20.8153C12.0322 21.7346 12.8313 22.4485 13.8762 22.9571C14.9211 23.4461 16.1607 23.6906 17.5949 23.6906C18.8447 23.6906 19.9408 23.5243 20.8833 23.1918C21.8462 22.8593 22.6248 22.3605 23.219 21.6955C23.8132 21.0304 24.2127 20.2187 24.4176 19.2603H30.81C30.5846 21.1967 29.888 22.8984 28.7202 24.3654C27.5523 25.8128 26.0157 26.9375 24.1102 27.7394C23.3898 28.046 22.6275 28.2939 21.8232 28.4833V30.9985H18.2031V28.934C18.0023 28.9396 17.7996 28.9424 17.5949 28.9424C17.3928 28.9424 17.1926 28.9397 16.9943 28.9342V31.0003H13.3742V28.4846C12.3709 28.249 11.4319 27.9223 10.557 27.5047C8.54914 26.5463 6.98176 25.2064 5.85489 23.4852C4.7485 21.7639 4.19531 19.759 4.19531 17.4705C4.19531 15.182 4.7485 13.1771 5.85489 11.4559C6.98176 9.73461 8.54914 8.39476 10.557 7.43633C11.4309 7.01922 12.3687 6.69287 13.3706 6.45729V3.24414Z" fill="#381C7A"/>
<path d="M126.194 14.8679V18.129H114.258V14.8679H126.194ZM117.323 16.4984L116.258 23.0424L114.432 20.9988H126.911V24.6512H111.758L112.997 16.4984L111.758 8.3457H126.802V11.9981H114.432L116.258 9.95451L117.323 16.4984Z" fill="#381C7A"/>
<path d="M108.807 17.5876C108.763 18.5732 108.56 19.5153 108.198 20.4139C107.85 21.298 107.335 22.0879 106.654 22.7836C105.988 23.4793 105.147 24.0229 104.132 24.4142C103.132 24.8055 101.966 25.0012 100.632 25.0012C99.3566 25.0012 98.1609 24.82 97.0449 24.4577C95.9289 24.0808 94.9433 23.5301 94.0882 22.8054C93.2475 22.0807 92.5881 21.1893 92.1098 20.1313C91.646 19.0732 91.4141 17.863 91.4141 16.5006C91.4141 15.1382 91.6532 13.928 92.1315 12.8699C92.6098 11.8119 93.2765 10.9205 94.1316 10.1958C95.0013 9.47112 96.0013 8.9276 97.1318 8.56526C98.2769 8.18842 99.5233 8 100.871 8C102.668 8 104.219 8.27538 105.524 8.82614C106.828 9.37691 107.879 10.1306 108.676 11.0872C109.473 12.0438 109.988 13.1525 110.22 14.4135H105.676C105.531 13.8627 105.234 13.3917 104.785 13.0003C104.35 12.5945 103.799 12.2902 103.132 12.0872C102.48 11.8698 101.734 11.7611 100.893 11.7611C99.8784 11.7611 99.0015 11.9423 98.2624 12.3046C97.5232 12.6525 96.9507 13.1815 96.5449 13.8917C96.139 14.5874 95.9361 15.457 95.9361 16.5006C95.9361 17.5586 96.1535 18.45 96.5883 19.1747C97.0231 19.8994 97.6391 20.4429 98.4363 20.8052C99.2479 21.1676 100.197 21.3488 101.284 21.3488C102.342 21.3488 103.277 21.2038 104.089 20.9139C104.901 20.6096 105.545 20.1675 106.024 19.5878C106.517 19.008 106.799 18.3123 106.872 17.5007L108.807 17.5876ZM101.719 19.3921V16.218H110.372V24.6533H107.176L106.546 18.1964L107.393 19.3921H101.719Z" fill="#381C7A"/>
<path d="M85.7873 8.3457C87.7149 8.3457 89.4034 8.68631 90.8528 9.36751C92.3167 10.0342 93.4472 10.9836 94.2444 12.2155C95.056 13.433 95.4618 14.8607 95.4618 16.4984C95.4618 18.1362 95.056 19.5711 94.2444 20.8031C93.4472 22.0206 92.3167 22.9699 90.8528 23.6511C89.4034 24.3178 87.7149 24.6512 85.7873 24.6512H77.6562V8.3457H85.7873ZM82.1348 22.7598L79.9825 20.6509H86.1351C87.1062 20.6509 87.9468 20.4842 88.657 20.1509C89.3817 19.803 89.9397 19.3175 90.3311 18.6943C90.7224 18.071 90.918 17.3391 90.918 16.4984C90.918 15.6433 90.7224 14.9114 90.3311 14.3026C89.9397 13.6794 89.3817 13.2011 88.657 12.8678C87.9468 12.5199 87.1062 12.346 86.1351 12.346H79.9825L82.1348 10.2371V22.7598Z" fill="#381C7A"/>
<path d="M71.7383 8.3457H76.2386V24.6512H71.7383V8.3457Z" fill="#381C7A"/>
<path d="M57.187 15.4766H63.1222C63.8469 15.4766 64.4122 15.31 64.818 14.9766C65.2238 14.6432 65.4267 14.1794 65.4267 13.5852C65.4267 12.9765 65.2238 12.5127 64.818 12.1938C64.4122 11.8604 63.8469 11.6938 63.1222 11.6938H56.5566L58.5784 9.54144V24.6512H54.0781V8.3457H63.7527C64.9992 8.3457 66.0862 8.57036 67.0138 9.01966C67.9414 9.45448 68.6661 10.0632 69.1879 10.8459C69.7097 11.614 69.9705 12.5272 69.9705 13.5852C69.9705 14.6143 69.7097 15.5201 69.1879 16.3028C68.6661 17.0854 67.9414 17.6942 67.0138 18.129C66.0862 18.5638 64.9992 18.7812 63.7527 18.7812H57.187V15.4766ZM59.622 17.0202H64.6876L70.5358 24.6512H65.318L59.622 17.0202Z" fill="#381C7A"/>
<path d="M47.5443 16.6724L47.9139 15.8245C49.1748 15.8535 50.2111 16.0491 51.0228 16.4115C51.8489 16.7593 52.4649 17.2521 52.8707 17.8898C53.2766 18.5131 53.4795 19.2378 53.4795 20.0639C53.4795 20.948 53.2766 21.7379 52.8707 22.4336C52.4649 23.1149 51.8562 23.6584 51.0445 24.0642C50.2474 24.4555 49.2473 24.6512 48.0443 24.6512H36L37.261 16.281L36 8.3457H47.6095C49.1169 8.3457 50.2909 8.7008 51.1315 9.411C51.9721 10.1067 52.3924 11.0778 52.3924 12.3242C52.3924 13.0054 52.233 13.6577 51.9142 14.2809C51.5953 14.9041 51.0808 15.4332 50.3706 15.868C49.6749 16.2883 48.7328 16.5564 47.5443 16.6724ZM40.4568 23.6076L38.7176 21.4988H46.8268C47.4791 21.4988 47.9863 21.3394 48.3487 21.0205C48.711 20.7016 48.8922 20.2596 48.8922 19.6943C48.8922 19.1291 48.6965 18.6798 48.3052 18.3464C47.9139 17.9986 47.3341 17.8246 46.566 17.8246H39.8698V14.7375H45.9572C46.479 14.7375 46.9138 14.5853 47.2617 14.2809C47.624 13.962 47.8052 13.5345 47.8052 12.9982C47.8052 12.5634 47.653 12.2083 47.3486 11.9329C47.0442 11.643 46.6094 11.4981 46.0442 11.4981H38.7393L40.4568 9.38926L41.5656 16.281L40.4568 23.6076Z" fill="#381C7A"/>
</svg>
